# WaveFront *.obj file (generated by Autodesk ATF)

mtllib stopper.mtl

g Body1

v 7.055504 0.600000 0.000000
v 7.062273 0.600000 0.060081
v 7.082242 0.600000 0.117149
v 7.114409 0.600000 0.168342
v 7.157161 0.600000 0.211095
v 7.208355 0.600000 0.243262
v 7.265423 0.600000 0.263231
v 7.325504 0.600000 0.270000
v 7.385584 0.600000 0.263231
v 7.442652 0.600000 0.243262
v 7.493846 0.600000 0.211095
v 7.536598 0.600000 0.168342
v 7.568765 0.600000 0.117149
v 7.588734 0.600000 0.060081
v 7.595504 0.600000 0.000000
v 7.588734 0.600000 -0.060081
v 7.568765 0.600000 -0.117149
v 7.536598 0.600000 -0.168342
v 7.493846 0.600000 -0.211095
v 7.442652 0.600000 -0.243262
v 7.385584 0.600000 -0.263231
v 7.325504 0.600000 -0.270000
v 7.265423 0.600000 -0.263231
v 7.208355 0.600000 -0.243262
v 7.157161 0.600000 -0.211095
v 7.114409 0.600000 -0.168342
v 7.082242 0.600000 -0.117149
v 7.062273 0.600000 -0.060081
v 7.055504 0.000000 0.000000
v 7.062273 0.000000 -0.060081
v 7.082242 0.000000 -0.117149
v 7.114409 0.000000 -0.168342
v 7.157161 0.000000 -0.211095
v 7.208355 0.000000 -0.243262
v 7.265423 0.000000 -0.263231
v 7.325504 0.000000 -0.270000
v 7.385584 0.000000 -0.263231
v 7.442652 0.000000 -0.243262
v 7.493846 0.000000 -0.211095
v 7.536598 0.000000 -0.168342
v 7.568765 0.000000 -0.117149
v 7.588734 0.000000 -0.060081
v 7.595504 0.000000 0.000000
v 7.588734 0.000000 0.060081
v 7.568765 0.000000 0.117149
v 7.536598 0.000000 0.168342
v 7.493846 0.000000 0.211095
v 7.442652 0.000000 0.243262
v 7.385584 0.000000 0.263231
v 7.325504 0.000000 0.270000
v 7.265423 0.000000 0.263231
v 7.208355 0.000000 0.243262
v 7.157161 0.000000 0.211095
v 7.114409 0.000000 0.168342
v 7.082242 0.000000 0.117149
v 7.062273 0.000000 0.060081
v 6.725504 0.000000 -0.600000
v 6.725504 0.000000 0.600000
v 6.725504 0.600000 0.600000
v 6.725504 0.600000 -0.600000
v 7.925504 0.000000 -0.600000
v 7.925504 0.600000 -0.600000
v 7.925504 0.000000 0.600000
v 7.925504 0.600000 0.600000
vt 0.600000 -0.787642 0.000000
vt -0.000000 -0.787642 0.000000
vt 0.600000 -0.848230 0.000000
vt 0.000000 -0.848230 0.000000
vt 0.600000 0.848230 0.000000
vt 0.000000 0.848230 0.000000
vt 0.600000 0.787642 0.000000
vt -0.000000 0.787642 0.000000
vt 0.600000 0.727054 0.000000
vt -0.000000 0.727054 0.000000
vt 0.600000 0.666466 0.000000
vt -0.000000 0.666466 0.000000
vt 0.600000 0.605879 0.000000
vt -0.000000 0.605879 0.000000
vt 0.600000 0.545291 0.000000
vt -0.000000 0.545291 0.000000
vt 0.600000 0.484703 0.000000
vt -0.000000 0.484703 0.000000
vt 0.600000 0.424115 0.000000
vt 0.000000 0.424115 0.000000
vt 0.600000 0.363527 0.000000
vt -0.000000 0.363527 0.000000
vt 0.600000 0.302939 0.000000
vt -0.000000 0.302939 0.000000
vt 0.600000 0.242351 0.000000
vt -0.000000 0.242351 0.000000
vt 0.600000 0.181764 0.000000
vt -0.000000 0.181764 0.000000
vt 0.600000 0.121176 0.000000
vt -0.000000 0.121176 0.000000
vt 0.600000 0.060588 0.000000
vt -0.000000 0.060588 0.000000
vt 0.600000 0.000000 0.000000
vt 0.000000 0.000000 0.000000
vt 0.600000 -0.060588 0.000000
vt -0.000000 -0.060588 0.000000
vt 0.600000 -0.121176 0.000000
vt -0.000000 -0.121176 0.000000
vt 0.600000 -0.181764 0.000000
vt -0.000000 -0.181764 0.000000
vt 0.600000 -0.242351 0.000000
vt -0.000000 -0.242351 0.000000
vt 0.600000 -0.302939 0.000000
vt -0.000000 -0.302939 0.000000
vt 0.600000 -0.363527 0.000000
vt -0.000000 -0.363527 0.000000
vt 0.600000 -0.424115 0.000000
vt 0.000000 -0.424115 0.000000
vt 0.600000 -0.484703 0.000000
vt -0.000000 -0.484703 0.000000
vt 0.600000 -0.545291 0.000000
vt -0.000000 -0.545291 0.000000
vt 0.600000 -0.605879 0.000000
vt -0.000000 -0.605879 0.000000
vt 0.600000 -0.666466 0.000000
vt -0.000000 -0.666466 0.000000
vt 0.600000 -0.727054 0.000000
vt -0.000000 -0.727054 0.000000
vt 0.000000 0.000000 0.000000
vt 1.200000 0.000000 0.000000
vt 0.000000 0.600000 0.000000
vt 1.200000 0.600000 0.000000
vt -0.000000 0.000000 0.000000
vt 1.200000 0.000000 0.000000
vt -0.000000 0.600000 0.000000
vt 1.200000 0.600000 0.000000
vt -0.000000 0.000000 0.000000
vt 1.200000 0.000000 0.000000
vt -0.000000 0.600000 0.000000
vt 1.200000 0.600000 0.000000
vt 0.000000 0.000000 0.000000
vt 1.200000 0.000000 0.000000
vt 0.000000 0.600000 0.000000
vt 1.200000 0.600000 0.000000
vt -0.263231 0.060081 0.000000
vt -0.600000 0.600000 0.000000
vt -0.270000 -0.000000 0.000000
vt -0.600000 -0.600000 0.000000
vt -0.263231 -0.060081 0.000000
vt -0.243262 -0.117149 0.000000
vt -0.211095 -0.168342 0.000000
vt -0.168342 -0.211095 0.000000
vt -0.117149 -0.243262 0.000000
vt -0.060081 -0.263231 0.000000
vt 0.000000 -0.270000 0.000000
vt 0.600000 -0.600000 0.000000
vt 0.060081 -0.263231 0.000000
vt 0.117149 -0.243262 0.000000
vt 0.168342 -0.211095 0.000000
vt 0.211095 -0.168342 0.000000
vt 0.243262 -0.117149 0.000000
vt 0.263231 -0.060081 0.000000
vt 0.270000 0.000000 0.000000
vt 0.600000 0.600000 0.000000
vt 0.263231 0.060081 0.000000
vt 0.243262 0.117149 0.000000
vt 0.211095 0.168342 0.000000
vt 0.168342 0.211095 0.000000
vt 0.117149 0.243262 0.000000
vt 0.060081 0.263231 0.000000
vt 0.000000 0.270000 0.000000
vt -0.060081 0.263231 0.000000
vt -0.117149 0.243262 0.000000
vt -0.168342 0.211095 0.000000
vt -0.211095 0.168342 0.000000
vt -0.243262 0.117149 0.000000
vt 0.263231 -0.060081 0.000000
vt 0.600000 -0.600000 0.000000
vt 0.270000 -0.000000 0.000000
vt 0.600000 0.600000 0.000000
vt 0.263231 0.060081 0.000000
vt 0.243262 0.117149 0.000000
vt 0.211095 0.168342 0.000000
vt 0.168342 0.211095 0.000000
vt 0.117149 0.243262 0.000000
vt 0.060081 0.263231 0.000000
vt -0.000000 0.270000 0.000000
vt -0.600000 0.600000 0.000000
vt -0.060081 0.263231 0.000000
vt -0.117149 0.243262 0.000000
vt -0.168342 0.211095 0.000000
vt -0.211095 0.168342 0.000000
vt -0.243262 0.117149 0.000000
vt -0.263231 0.060081 0.000000
vt -0.270000 0.000000 0.000000
vt -0.600000 -0.600000 0.000000
vt -0.263231 -0.060081 0.000000
vt -0.243262 -0.117149 0.000000
vt -0.211095 -0.168342 0.000000
vt -0.168342 -0.211095 0.000000
vt -0.117149 -0.243262 0.000000
vt -0.060081 -0.263231 0.000000
vt -0.000000 -0.270000 0.000000
vt 0.060081 -0.263231 0.000000
vt 0.117149 -0.243262 0.000000
vt 0.168342 -0.211095 0.000000
vt 0.211095 -0.168342 0.000000
vt 0.243262 -0.117149 0.000000
vn 0.974928 0.000000 -0.222521
vn 0.974928 0.000000 -0.222521
vn 1.000000 0.000000 -0.000000
vn 1.000000 0.000000 -0.000000
vn 0.974928 -0.000000 0.222521
vn 0.974928 -0.000000 0.222521
vn 0.900969 -0.000000 0.433884
vn 0.900969 -0.000000 0.433884
vn 0.781831 -0.000000 0.623490
vn 0.781831 -0.000000 0.623490
vn 0.623490 -0.000000 0.781831
vn 0.623490 -0.000000 0.781831
vn 0.433884 -0.000000 0.900969
vn 0.433884 -0.000000 0.900969
vn 0.222521 -0.000000 0.974928
vn 0.222521 -0.000000 0.974928
vn -0.000000 0.000000 1.000000
vn -0.000000 0.000000 1.000000
vn -0.222521 0.000000 0.974928
vn -0.222521 0.000000 0.974928
vn -0.433884 0.000000 0.900969
vn -0.433884 0.000000 0.900969
vn -0.623490 0.000000 0.781831
vn -0.623490 0.000000 0.781831
vn -0.781831 0.000000 0.623490
vn -0.781831 0.000000 0.623490
vn -0.900969 0.000000 0.433884
vn -0.900969 0.000000 0.433884
vn -0.974928 0.000000 0.222521
vn -0.974928 0.000000 0.222521
vn -1.000000 0.000000 0.000000
vn -1.000000 0.000000 0.000000
vn -0.974928 0.000000 -0.222521
vn -0.974928 0.000000 -0.222521
vn -0.900969 0.000000 -0.433884
vn -0.900969 0.000000 -0.433884
vn -0.781831 0.000000 -0.623490
vn -0.781831 0.000000 -0.623490
vn -0.623490 0.000000 -0.781831
vn -0.623490 0.000000 -0.781831
vn -0.433884 0.000000 -0.900969
vn -0.433884 0.000000 -0.900969
vn -0.222521 0.000000 -0.974928
vn -0.222521 0.000000 -0.974928
vn -0.000000 0.000000 -1.000000
vn -0.000000 0.000000 -1.000000
vn 0.222521 0.000000 -0.974928
vn 0.222521 0.000000 -0.974928
vn 0.433884 0.000000 -0.900969
vn 0.433884 0.000000 -0.900969
vn 0.623490 0.000000 -0.781831
vn 0.623490 0.000000 -0.781831
vn 0.781831 0.000000 -0.623490
vn 0.781831 0.000000 -0.623490
vn 0.900969 0.000000 -0.433884
vn 0.900969 0.000000 -0.433884
vn -1.000000 0.000000 0.000000
vn -1.000000 0.000000 0.000000
vn -1.000000 0.000000 0.000000
vn -1.000000 0.000000 0.000000
vn 0.000000 0.000000 -1.000000
vn 0.000000 0.000000 -1.000000
vn 0.000000 0.000000 -1.000000
vn 0.000000 0.000000 -1.000000
vn 1.000000 0.000000 0.000000
vn 1.000000 0.000000 0.000000
vn 1.000000 0.000000 0.000000
vn 1.000000 0.000000 0.000000
vn 0.000000 -0.000000 1.000000
vn 0.000000 -0.000000 1.000000
vn 0.000000 -0.000000 1.000000
vn 0.000000 -0.000000 1.000000
vn 0.000000 1.000000 0.000000
vn 0.000000 1.000000 0.000000
vn 0.000000 1.000000 0.000000
vn 0.000000 1.000000 0.000000
vn 0.000000 1.000000 0.000000
vn 0.000000 1.000000 0.000000
vn 0.000000 1.000000 0.000000
vn 0.000000 1.000000 0.000000
vn 0.000000 1.000000 0.000000
vn 0.000000 1.000000 0.000000
vn 0.000000 1.000000 0.000000
vn 0.000000 1.000000 0.000000
vn 0.000000 1.000000 0.000000
vn 0.000000 1.000000 0.000000
vn 0.000000 1.000000 0.000000
vn 0.000000 1.000000 0.000000
vn 0.000000 1.000000 0.000000
vn 0.000000 1.000000 0.000000
vn 0.000000 1.000000 0.000000
vn 0.000000 1.000000 0.000000
vn 0.000000 1.000000 0.000000
vn 0.000000 1.000000 0.000000
vn 0.000000 1.000000 0.000000
vn 0.000000 1.000000 0.000000
vn 0.000000 1.000000 0.000000
vn 0.000000 1.000000 0.000000
vn 0.000000 1.000000 0.000000
vn 0.000000 1.000000 0.000000
vn 0.000000 1.000000 0.000000
vn 0.000000 1.000000 0.000000
vn 0.000000 1.000000 0.000000
vn 0.000000 1.000000 0.000000
vn -0.000000 -1.000000 -0.000000
vn -0.000000 -1.000000 -0.000000
vn -0.000000 -1.000000 -0.000000
vn -0.000000 -1.000000 -0.000000
vn -0.000000 -1.000000 -0.000000
vn -0.000000 -1.000000 -0.000000
vn -0.000000 -1.000000 -0.000000
vn -0.000000 -1.000000 -0.000000
vn -0.000000 -1.000000 -0.000000
vn -0.000000 -1.000000 -0.000000
vn -0.000000 -1.000000 -0.000000
vn -0.000000 -1.000000 -0.000000
vn -0.000000 -1.000000 -0.000000
vn -0.000000 -1.000000 -0.000000
vn -0.000000 -1.000000 -0.000000
vn -0.000000 -1.000000 -0.000000
vn -0.000000 -1.000000 -0.000000
vn -0.000000 -1.000000 -0.000000
vn -0.000000 -1.000000 -0.000000
vn -0.000000 -1.000000 -0.000000
vn -0.000000 -1.000000 -0.000000
vn -0.000000 -1.000000 -0.000000
vn -0.000000 -1.000000 -0.000000
vn -0.000000 -1.000000 -0.000000
vn -0.000000 -1.000000 -0.000000
vn -0.000000 -1.000000 -0.000000
vn -0.000000 -1.000000 -0.000000
vn -0.000000 -1.000000 -0.000000
vn -0.000000 -1.000000 -0.000000
vn -0.000000 -1.000000 -0.000000
vn -0.000000 -1.000000 -0.000000
vn -0.000000 -1.000000 -0.000000
usemtl Steel_-_Satin
f 2/1/1 56/2/2 1/3/3
f 1/3/3 56/2/2 29/4/4
f 1/5/3 29/6/4 28/7/5
f 28/7/5 29/6/4 30/8/6
f 28/7/5 30/8/6 27/9/7
f 27/9/7 30/8/6 31/10/8
f 27/9/7 31/10/8 26/11/9
f 26/11/9 31/10/8 32/12/10
f 26/11/9 32/12/10 25/13/11
f 25/13/11 32/12/10 33/14/12
f 25/13/11 33/14/12 24/15/13
f 24/15/13 33/14/12 34/16/14
f 24/15/13 34/16/14 23/17/15
f 23/17/15 34/16/14 35/18/16
f 23/17/15 35/18/16 22/19/17
f 22/19/17 35/18/16 36/20/18
f 22/19/17 36/20/18 21/21/19
f 21/21/19 36/20/18 37/22/20
f 21/21/19 37/22/20 20/23/21
f 20/23/21 37/22/20 38/24/22
f 20/23/21 38/24/22 19/25/23
f 19/25/23 38/24/22 39/26/24
f 19/25/23 39/26/24 18/27/25
f 18/27/25 39/26/24 40/28/26
f 18/27/25 40/28/26 17/29/27
f 17/29/27 40/28/26 41/30/28
f 17/29/27 41/30/28 16/31/29
f 16/31/29 41/30/28 42/32/30
f 16/31/29 42/32/30 15/33/31
f 15/33/31 42/32/30 43/34/32
f 15/33/31 43/34/32 14/35/33
f 14/35/33 43/34/32 44/36/34
f 14/35/33 44/36/34 13/37/35
f 13/37/35 44/36/34 45/38/36
f 13/37/35 45/38/36 12/39/37
f 12/39/37 45/38/36 46/40/38
f 12/39/37 46/40/38 11/41/39
f 11/41/39 46/40/38 47/42/40
f 11/41/39 47/42/40 10/43/41
f 10/43/41 47/42/40 48/44/42
f 10/43/41 48/44/42 9/45/43
f 9/45/43 48/44/42 49/46/44
f 9/45/43 49/46/44 8/47/45
f 8/47/45 49/46/44 50/48/46
f 8/47/45 50/48/46 7/49/47
f 7/49/47 50/48/46 51/50/48
f 7/49/47 51/50/48 6/51/49
f 6/51/49 51/50/48 52/52/50
f 6/51/49 52/52/50 5/53/51
f 5/53/51 52/52/50 53/54/52
f 5/53/51 53/54/52 4/55/53
f 4/55/53 53/54/52 54/56/54
f 4/55/53 54/56/54 3/57/55
f 3/57/55 54/56/54 55/58/56
f 3/57/55 55/58/56 2/1/1
f 2/1/1 55/58/56 56/2/2
f 57/59/57 58/60/58 60/61/59
f 60/61/59 58/60/58 59/62/60
f 61/63/61 57/64/62 62/65/63
f 62/65/63 57/64/62 60/66/64
f 63/67/65 61/68/66 64/69/67
f 64/69/67 61/68/66 62/70/68
f 58/71/69 63/72/70 59/73/71
f 59/73/71 63/72/70 64/74/72
f 28/75/73 60/76/74 1/77/75
f 1/77/75 60/76/74 59/78/76
f 1/77/75 59/78/76 2/79/77
f 2/79/77 59/78/76 3/80/78
f 3/80/78 59/78/76 4/81/79
f 4/81/79 59/78/76 5/82/80
f 5/82/80 59/78/76 6/83/81
f 6/83/81 59/78/76 7/84/82
f 7/84/82 59/78/76 8/85/83
f 8/85/83 59/78/76 64/86/84
f 8/85/83 64/86/84 9/87/85
f 9/87/85 64/86/84 10/88/86
f 10/88/86 64/86/84 11/89/87
f 11/89/87 64/86/84 12/90/88
f 12/90/88 64/86/84 13/91/89
f 13/91/89 64/86/84 14/92/90
f 14/92/90 64/86/84 15/93/91
f 15/93/91 64/86/84 62/94/92
f 15/93/91 62/94/92 16/95/93
f 16/95/93 62/94/92 17/96/94
f 17/96/94 62/94/92 18/97/95
f 18/97/95 62/94/92 19/98/96
f 19/98/96 62/94/92 20/99/97
f 20/99/97 62/94/92 21/100/98
f 21/100/98 62/94/92 22/101/99
f 22/101/99 62/94/92 60/76/74
f 22/101/99 60/76/74 23/102/100
f 23/102/100 60/76/74 24/103/101
f 24/103/101 60/76/74 25/104/102
f 25/104/102 60/76/74 26/105/103
f 26/105/103 60/76/74 27/106/104
f 27/106/104 60/76/74 28/75/73
f 56/107/105 58/108/106 29/109/107
f 29/109/107 58/108/106 57/110/108
f 29/109/107 57/110/108 30/111/109
f 30/111/109 57/110/108 31/112/110
f 31/112/110 57/110/108 32/113/111
f 32/113/111 57/110/108 33/114/112
f 33/114/112 57/110/108 34/115/113
f 34/115/113 57/110/108 35/116/114
f 35/116/114 57/110/108 36/117/115
f 36/117/115 57/110/108 61/118/116
f 36/117/115 61/118/116 37/119/117
f 37/119/117 61/118/116 38/120/118
f 38/120/118 61/118/116 39/121/119
f 39/121/119 61/118/116 40/122/120
f 40/122/120 61/118/116 41/123/121
f 41/123/121 61/118/116 42/124/122
f 42/124/122 61/118/116 43/125/123
f 43/125/123 61/118/116 63/126/124
f 43/125/123 63/126/124 44/127/125
f 44/127/125 63/126/124 45/128/126
f 45/128/126 63/126/124 46/129/127
f 46/129/127 63/126/124 47/130/128
f 47/130/128 63/126/124 48/131/129
f 48/131/129 63/126/124 49/132/130
f 49/132/130 63/126/124 50/133/131
f 50/133/131 63/126/124 58/108/106
f 50/133/131 58/108/106 51/134/132
f 51/134/132 58/108/106 52/135/133
f 52/135/133 58/108/106 53/136/134
f 53/136/134 58/108/106 54/137/135
f 54/137/135 58/108/106 55/138/136
f 55/138/136 58/108/106 56/107/105
# 64 vertices
# 138 texture params
# 136 normals
# 128 facets

# 1 groups
