# WaveFront *.obj file (generated by Autodesk ATF)

mtllib button.mtl

g Body1

v 12.267038 0.424120 -0.006759
v 12.267038 -0.234059 0.373241
v 12.247038 -0.241380 0.400561
v 12.247038 0.451441 0.000561
v 13.327038 -0.234059 0.373241
v 13.347038 -0.241380 0.400561
v 13.327038 0.424120 -0.006759
v 13.347038 0.451441 0.000561
v 12.247038 0.491441 0.069843
v 13.347038 0.491441 0.069843
v 12.247038 -0.201380 0.469843
v 12.487038 0.476896 0.424651
v 13.107038 0.476896 0.424651
v 13.207038 0.488498 0.244747
v 12.387038 0.488498 0.244747
v 13.107038 0.113165 0.634651
v 13.207038 -0.048437 0.554747
v 12.487038 0.113165 0.634651
v 12.387038 -0.048437 0.554747
v 12.387038 0.413498 0.114843
v 12.387038 -0.123437 0.424843
v 13.207038 0.413498 0.114843
v 13.347038 -0.201380 0.469843
v 13.207038 -0.123437 0.424843
vt -0.229797 0.532722 0.000000
vt 0.054127 -0.172251 0.000000
vt -0.211033 0.561841 0.000000
vt 0.087835 -0.180236 0.000000
vt 0.014142 -0.805000 0.000000
vt 0.014142 0.255000 0.000000
vt -0.014142 -0.825000 0.000000
vt -0.014142 0.275000 0.000000
vt 0.080363 0.161684 0.000000
vt 0.061599 0.190802 0.000000
vt -0.203561 -0.543289 0.000000
vt -0.237269 -0.551274 0.000000
vt 0.275000 0.014142 0.000000
vt -0.825000 0.014142 0.000000
vt 0.255000 -0.014142 0.000000
vt -0.805000 -0.014142 0.000000
vt 1.100000 0.080000 0.000000
vt 0.000000 0.080000 0.000000
vt 1.100000 0.000000 0.000000
vt 0.000000 0.000000 0.000000
vt 0.800000 0.080000 0.000000
vt 0.000000 0.080000 0.000000
vt 0.800000 0.000000 0.000000
vt 0.000000 0.000000 0.000000
vt 0.530000 0.380000 0.000000
vt -0.530000 0.380000 0.000000
vt 0.530000 -0.380000 0.000000
vt -0.530000 -0.380000 0.000000
vt 0.090139 -0.515000 0.000000
vt 0.090139 0.105000 0.000000
vt -0.090139 -0.615000 0.000000
vt -0.090139 0.205000 0.000000
vt -0.105009 -0.011099 0.000000
vt 0.015076 -0.178669 0.000000
vt 0.074857 0.368438 0.000000
vt 0.280592 0.381599 0.000000
vt 0.515000 0.090139 0.000000
vt -0.105000 0.090139 0.000000
vt 0.615000 -0.090139 0.000000
vt -0.205000 -0.090139 0.000000
vt -0.147834 0.101465 0.000000
vt 0.117683 -0.458804 0.000000
vt 0.057901 0.088303 0.000000
vt 0.237767 -0.291233 0.000000
vt 0.620000 0.150000 0.000000
vt 0.000000 0.150000 0.000000
vt 0.620000 -0.000000 0.000000
vt -0.000000 -0.000000 0.000000
vt 0.820000 0.150000 0.000000
vt -0.000000 0.150000 0.000000
vt 0.820000 -0.000000 0.000000
vt -0.000000 0.000000 0.000000
vt 0.310000 0.210000 0.000000
vt -0.310000 0.210000 0.000000
vt 0.310000 -0.210000 0.000000
vt -0.310000 -0.210000 0.000000
vt 0.550000 -0.400000 0.000000
vt -0.410000 -0.310000 0.000000
vt -0.550000 -0.400000 0.000000
vt -0.410000 0.310000 0.000000
vt -0.550000 0.400000 0.000000
vt 0.410000 0.310000 0.000000
vt 0.550000 0.400000 0.000000
vt 0.410000 -0.310000 0.000000
vt 0.800000 0.080000 0.000000
vt 0.000000 0.080000 0.000000
vt 0.800000 -0.000000 0.000000
vt 0.000000 -0.000000 0.000000
vt 1.100000 0.080000 0.000000
vt -0.000000 0.080000 0.000000
vt 1.100000 0.000000 0.000000
vt 0.000000 -0.000000 0.000000
vt 0.620000 0.150000 0.000000
vt -0.000000 0.150000 0.000000
vt 0.620000 0.000000 0.000000
vt 0.000000 0.000000 0.000000
vt 0.820000 0.150000 0.000000
vt -0.000000 0.150000 0.000000
vt 0.820000 -0.000000 0.000000
vt 0.000000 0.000000 0.000000
vn -0.707107 -0.353553 -0.612372
vn -0.707107 -0.353553 -0.612372
vn -0.707107 -0.353553 -0.612372
vn -0.707107 -0.353553 -0.612372
vn -0.000000 -0.965926 -0.258819
vn -0.000000 -0.965926 -0.258819
vn -0.000000 -0.965926 -0.258819
vn -0.000000 -0.965926 -0.258819
vn 0.707107 -0.353553 -0.612372
vn 0.707107 -0.353553 -0.612372
vn 0.707107 -0.353553 -0.612372
vn 0.707107 -0.353553 -0.612372
vn 0.000000 0.258819 -0.965926
vn 0.000000 0.258819 -0.965926
vn 0.000000 0.258819 -0.965926
vn 0.000000 0.258819 -0.965926
vn 0.000000 0.866025 -0.500000
vn 0.000000 0.866025 -0.500000
vn 0.000000 0.866025 -0.500000
vn 0.000000 0.866025 -0.500000
vn -1.000000 0.000000 -0.000000
vn -1.000000 0.000000 -0.000000
vn -1.000000 0.000000 -0.000000
vn -1.000000 0.000000 -0.000000
vn 0.000000 -0.500000 -0.866025
vn 0.000000 -0.500000 -0.866025
vn 0.000000 -0.500000 -0.866025
vn 0.000000 -0.500000 -0.866025
vn 0.000000 0.997927 0.064359
vn 0.000000 0.997927 0.064359
vn 0.000000 0.997927 0.064359
vn 0.000000 0.997927 0.064359
vn 0.832050 0.277350 0.480384
vn 0.832050 0.277350 0.480384
vn 0.832050 0.277350 0.480384
vn 0.832050 0.277350 0.480384
vn -0.000000 -0.443227 0.896410
vn -0.000000 -0.443227 0.896410
vn -0.000000 -0.443227 0.896410
vn -0.000000 -0.443227 0.896410
vn -0.832050 0.277350 0.480384
vn -0.832050 0.277350 0.480384
vn -0.832050 0.277350 0.480384
vn -0.832050 0.277350 0.480384
vn -1.000000 0.000000 -0.000000
vn -1.000000 0.000000 -0.000000
vn -1.000000 0.000000 -0.000000
vn -1.000000 0.000000 -0.000000
vn 0.000000 0.866025 -0.500000
vn 0.000000 0.866025 -0.500000
vn 0.000000 0.866025 -0.500000
vn 0.000000 0.866025 -0.500000
vn 0.000000 0.500000 0.866025
vn 0.000000 0.500000 0.866025
vn 0.000000 0.500000 0.866025
vn 0.000000 0.500000 0.866025
vn 0.000000 0.500000 0.866025
vn 0.000000 0.500000 0.866025
vn 0.000000 0.500000 0.866025
vn 0.000000 0.500000 0.866025
vn 0.000000 0.500000 0.866025
vn 0.000000 0.500000 0.866025
vn 0.000000 0.500000 0.866025
vn 0.000000 0.500000 0.866025
vn 1.000000 0.000000 -0.000000
vn 1.000000 0.000000 -0.000000
vn 1.000000 0.000000 -0.000000
vn 1.000000 0.000000 -0.000000
vn -0.000000 -0.866025 0.500000
vn -0.000000 -0.866025 0.500000
vn -0.000000 -0.866025 0.500000
vn -0.000000 -0.866025 0.500000
vn 1.000000 -0.000000 0.000000
vn 1.000000 -0.000000 0.000000
vn 1.000000 -0.000000 0.000000
vn 1.000000 -0.000000 0.000000
vn -0.000000 -0.866025 0.500000
vn -0.000000 -0.866025 0.500000
vn -0.000000 -0.866025 0.500000
vn -0.000000 -0.866025 0.500000
usemtl Steel_-_Satin
f 1/1/1 2/2/2 4/3/3
f 4/3/3 2/2/2 3/4/4
f 2/5/5 5/6/6 3/7/7
f 3/7/7 5/6/6 6/8/8
f 7/9/9 8/10/10 5/11/11
f 5/11/11 8/10/10 6/12/12
f 4/13/13 8/14/14 1/15/15
f 1/15/15 8/14/14 7/16/16
f 8/17/17 4/18/18 10/19/19
f 10/19/19 4/18/18 9/20/20
f 4/21/21 3/22/22 9/23/23
f 9/23/23 3/22/22 11/24/24
f 1/25/25 7/26/26 2/27/27
f 2/27/27 7/26/26 5/28/28
f 12/29/29 13/30/30 15/31/31
f 15/31/31 13/30/30 14/32/32
f 16/33/33 17/34/34 13/35/35
f 13/35/35 17/34/34 14/36/36
f 16/37/37 18/38/38 17/39/39
f 17/39/39 18/38/38 19/40/40
f 15/41/41 19/42/42 12/43/43
f 12/43/43 19/42/42 18/44/44
f 19/45/45 15/46/46 21/47/47
f 21/47/47 15/46/46 20/48/48
f 15/49/49 14/50/50 20/51/51
f 20/51/51 14/50/50 22/52/52
f 13/53/53 12/54/54 16/55/55
f 16/55/55 12/54/54 18/56/56
f 23/57/57 21/58/58 11/59/59
f 11/59/59 21/58/58 20/60/60
f 11/59/59 20/60/60 9/61/61
f 9/61/61 20/60/60 22/62/62
f 9/61/61 22/62/62 10/63/63
f 10/63/63 22/62/62 23/57/57
f 23/57/57 22/62/62 24/64/64
f 23/57/57 24/64/64 21/58/58
f 6/65/65 8/66/66 23/67/67
f 23/67/67 8/66/66 10/68/68
f 3/69/69 6/70/70 11/71/71
f 11/71/71 6/70/70 23/72/72
f 14/73/73 17/74/74 22/75/75
f 22/75/75 17/74/74 24/76/76
f 17/77/77 19/78/78 24/79/79
f 24/79/79 19/78/78 21/80/80
# 24 vertices
# 80 texture params
# 80 normals
# 44 facets

# 1 groups
